<svg width="135" height="24" viewBox="0 0 135 24" fill="none" xmlns="http://www.w3.org/2000/svg">
<path d="M4.29883 23H0.827148V1.58398H12.9121V4.54297H4.29883V11.2373H12.3701V14.2109H4.29883V23ZM30.7979 14.8701C30.7979 17.5166 30.1191 19.582 28.7617 21.0664C27.4043 22.5508 25.5146 23.293 23.0928 23.293C21.5791 23.293 20.2412 22.9512 19.0791 22.2676C17.917 21.584 17.0234 20.6025 16.3984 19.3232C15.7734 18.0439 15.4609 16.5596 15.4609 14.8701C15.4609 12.2432 16.1348 10.1924 17.4824 8.71777C18.8301 7.24316 20.7295 6.50586 23.1807 6.50586C25.5244 6.50586 27.3799 7.2627 28.7471 8.77637C30.1143 10.2803 30.7979 12.3115 30.7979 14.8701ZM19.0059 14.8701C19.0059 18.6104 20.3877 20.4805 23.1514 20.4805C25.8857 20.4805 27.2529 18.6104 27.2529 14.8701C27.2529 11.1689 25.876 9.31836 23.1221 9.31836C21.6768 9.31836 20.627 9.79688 19.9727 10.7539C19.3281 11.7109 19.0059 13.083 19.0059 14.8701ZM49.1377 14.8701C49.1377 17.5166 48.459 19.582 47.1016 21.0664C45.7441 22.5508 43.8545 23.293 41.4326 23.293C39.9189 23.293 38.5811 22.9512 37.4189 22.2676C36.2568 21.584 35.3633 20.6025 34.7383 19.3232C34.1133 18.0439 33.8008 16.5596 33.8008 14.8701C33.8008 12.2432 34.4746 10.1924 35.8223 8.71777C37.1699 7.24316 39.0693 6.50586 41.5205 6.50586C43.8643 6.50586 45.7197 7.2627 47.0869 8.77637C48.4541 10.2803 49.1377 12.3115 49.1377 14.8701ZM37.3457 14.8701C37.3457 18.6104 38.7275 20.4805 41.4912 20.4805C44.2256 20.4805 45.5928 18.6104 45.5928 14.8701C45.5928 11.1689 44.2158 9.31836 41.4619 9.31836C40.0166 9.31836 38.9668 9.79688 38.3125 10.7539C37.668 11.7109 37.3457 13.083 37.3457 14.8701ZM58.5713 23.293C56.5498 23.293 54.9727 22.5605 53.8398 21.0957C52.707 19.6309 52.1406 17.5752 52.1406 14.9287C52.1406 12.2725 52.7119 10.207 53.8545 8.73242C55.0068 7.24805 56.5986 6.50586 58.6299 6.50586C60.7588 6.50586 62.3799 7.29199 63.4932 8.86426H63.6689C63.5029 7.70215 63.4199 6.78418 63.4199 6.11035V0.207031H66.877V23H64.1816L63.5811 20.876H63.4199C62.3164 22.4873 60.7002 23.293 58.5713 23.293ZM59.4941 20.5098C60.9102 20.5098 61.9404 20.1143 62.585 19.3232C63.2295 18.5225 63.5615 17.2285 63.5811 15.4414V14.958C63.5811 12.917 63.249 11.4668 62.585 10.6074C61.9209 9.74805 60.8809 9.31836 59.4648 9.31836C58.2539 9.31836 57.3213 9.81152 56.667 10.7979C56.0127 11.7744 55.6855 13.1709 55.6855 14.9873C55.6855 16.7842 56.0029 18.1562 56.6377 19.1035C57.2725 20.041 58.2246 20.5098 59.4941 20.5098Z" fill="#FFFFFE"/>
<path d="M86.7988 23H82.3311V13.4346C82.3311 11.0713 81.4521 9.88965 79.6943 9.88965C78.4443 9.88965 77.541 10.3145 76.9844 11.1641C76.4277 12.0137 76.1494 13.3906 76.1494 15.2949V23H71.6816V0.207031H76.1494V4.85059C76.1494 5.21191 76.1152 6.06152 76.0469 7.39941L75.9443 8.71777H76.1787C77.1748 7.11621 78.7568 6.31543 80.9248 6.31543C82.8486 6.31543 84.3086 6.83301 85.3047 7.86816C86.3008 8.90332 86.7988 10.3877 86.7988 12.3213V23ZM103 23L102.399 20.9053H102.165C101.687 21.667 101.008 22.2578 100.129 22.6777C99.25 23.0879 98.249 23.293 97.126 23.293C95.2021 23.293 93.752 22.7803 92.7754 21.7549C91.7988 20.7197 91.3105 19.2354 91.3105 17.3018V6.62305H95.7783V16.1885C95.7783 17.3701 95.9883 18.2588 96.4082 18.8545C96.8281 19.4404 97.4971 19.7334 98.415 19.7334C99.665 19.7334 100.568 19.3184 101.125 18.4883C101.682 17.6484 101.96 16.2617 101.96 14.3281V6.62305H106.428V23H103ZM120.227 6.31543C122.16 6.31543 123.674 7.07227 124.768 8.58594C125.861 10.0898 126.408 12.1553 126.408 14.7822C126.408 17.4873 125.842 19.582 124.709 21.0664C123.586 22.5508 122.053 23.293 120.109 23.293C118.186 23.293 116.677 22.5947 115.583 21.1982H115.275L114.528 23H111.115V0.207031H115.583V5.50977C115.583 6.18359 115.524 7.2627 115.407 8.74707H115.583C116.628 7.12598 118.176 6.31543 120.227 6.31543ZM118.791 9.88965C117.688 9.88965 116.882 10.2314 116.374 10.915C115.866 11.5889 115.603 12.707 115.583 14.2695V14.7529C115.583 16.5107 115.842 17.7705 116.359 18.5322C116.887 19.2939 117.717 19.6748 118.85 19.6748C119.768 19.6748 120.495 19.2549 121.032 18.415C121.579 17.5654 121.853 16.335 121.853 14.7236C121.853 13.1123 121.579 11.9062 121.032 11.1055C120.485 10.2949 119.738 9.88965 118.791 9.88965ZM129.47 20.9053C129.47 20.085 129.689 19.4648 130.129 19.0449C130.568 18.625 131.208 18.415 132.048 18.415C132.858 18.415 133.483 18.6299 133.923 19.0596C134.372 19.4893 134.597 20.1045 134.597 20.9053C134.597 21.6768 134.372 22.2871 133.923 22.7363C133.474 23.1758 132.849 23.3955 132.048 23.3955C131.228 23.3955 130.593 23.1807 130.144 22.751C129.694 22.3115 129.47 21.6963 129.47 20.9053Z" fill="#FCC232"/>
</svg>
